<svg id="Layer_1" data-name="Layer 1" xmlns="http://www.w3.org/2000/svg" viewBox="0 0 655.5 318.9"><defs><style>.cls-1{fill:none;}.cls-2{fill:#5a9ecb;}.cls-3{fill:#dd4842;}.cls-4{fill:#fff;stroke:#000;stroke-miterlimit:10;}</style></defs><title>BERKNAVArtboard 3</title><path d="M588.5,280.65c-5.7-38.3-11-75.1-16.1-112,13.9-13.4,15.3-41.7,15.3-63.8,0-48.9-14.1-66.3-35.8-66.3H527.1v241.7h5.4l-5.4,2.8v4.2H519v-32H494.8v-77.5h17.1V142H494.8V73.55H519v-35H472.1v241.5l5.4.2-5.4,2.8v4.2H464v-31.9H439.8v-77.5h17.1v-35.8H439.8V73.55H464v-35H417.1v248.7H385.8c13.9-7.8,20.7-30.9,20.7-71.3,0-31.5-5.4-55.5-20-63.5,11.3-8.5,17-22,17-48.9,0-54.4-15.2-65-34.5-65H345.8v248.7H328.2l-4,3H549.8l-2.6-9.3,2.6-.1V174.35h3.7l12.9,115.9h23.5l-1.6-9.7Zm-220-207.9c8.4-.1,14.3-.3,14.3,29.6,0,19.4-1.8,35.2-10.4,35.2h-3.9V72.75Zm2.2,181.6h-2.1v-83.3h2.2c10.6,0,13.6,17.3,13.6,41.5C384.5,241.65,382.7,254.35,370.7,254.35Zm185.6-111h-6.5V76h7.6c6.8,0,7.7,23.8,7.7,33C565,118.35,563.8,143.35,556.3,143.35Z"/><polygon class="cls-1" points="186.7 287.35 186.7 283.05 181.1 287.35 186.7 287.35"/><polygon class="cls-1" points="472.1 287.35 472.1 283.15 463.9 287.35 472.1 287.35"/><polygon class="cls-1" points="256.8 287.35 256.8 284.85 253.3 287.35 256.8 287.35"/><polygon class="cls-1" points="527.1 287.35 527.1 283.15 518.9 287.35 527.1 287.35"/><polygon class="cls-1" points="283.6 287.35 300.2 287.35 283.6 175.25 279.5 199.05 279.5 280.35 293.1 280.35 283.6 287.35"/><path class="cls-1" d="M217,76h-7.6v67.4h6.5c7.6,0,8.7-25,8.7-34.4C224.7,99.75,223.8,76,217,76Z"/><polygon class="cls-1" points="213.5 287.35 225.7 287.35 213.2 174.35 209.5 174.35 209.5 280.35 223 280.35 213.5 287.35"/><path class="cls-1" d="M97.5,102.35c0-29.9-5.9-29.8-14.3-29.6v64.9h3.9C95.7,137.65,97.5,121.85,97.5,102.35Z"/><path class="cls-1" d="M85.5,171.05H83.3v83.3h2.1c12,0,13.7-12.7,13.7-41.8C99.2,188.35,96.1,171.05,85.5,171.05Z"/><path class="cls-1" d="M557.3,76h-7.6v67.4h6.5c7.6,0,8.7-25,8.7-34.4C565,99.75,564.1,76,557.3,76Z"/><path class="cls-1" d="M370.9,171.05h-2.2v83.3h2.1c12,0,13.7-12.7,13.7-41.8C384.5,188.35,381.4,171.05,370.9,171.05Z"/><path class="cls-1" d="M382.8,102.35c0-29.9-5.9-29.8-14.3-29.6v64.9h3.9C381,137.65,382.8,121.85,382.8,102.35Z"/><polygon points="485.5 38.65 485.6 28.55 472 38.65 472.1 38.65 472.1 38.65 485.5 38.65"/><polygon points="200.1 38.65 200.2 28.55 186.6 38.65 186.7 38.65 186.7 38.65 200.1 38.65"/><polygon points="540.3 38.65 540.4 28.55 526.8 38.65 527.1 38.65 527.1 38.65 540.3 38.65"/><polygon points="181.1 287.35 186.7 283.05 186.7 278.15 179.2 275.55 178.6 279.55 178.6 287.35 181.1 287.35"/><polygon points="322.6 280.65 299.6 141.65 322.5 38.65 297.1 38.65 279.5 134.15 279.5 38.65 270.4 38.65 270.4 38.65 256.9 38.65 256.8 38.65 256.8 280.35 263.2 280.35 256.8 284.85 256.8 287.35 253.3 287.35 249.1 290.35 249.6 290.35 256.8 290.35 279.5 290.35 278.1 280.35 279.5 280.35 279.5 199.05 283.6 175.25 300.2 287.35 283.6 287.35 279.5 290.35 300.6 290.35 324.2 290.35 322.3 280.65 322.6 280.65"/><path d="M248.1,280.35c-5.7-38.2-10.9-74.9-16.1-111.7,13.9-13.4,15.3-41.7,15.3-63.8,0-48.9-14.1-66.3-35.8-66.3H186.8v248.7h-8.1v-31.9H154.5v-77.5h17.1v-35.8H154.5V73.55h24.2v-35H131.8v248.7H100.5c13.9-7.8,20.7-30.9,20.7-71.3,0-31.5-5.4-55.5-20-63.5,11.3-8.5,17-22,17-48.9,0-54.4-15.2-65-34.5-65H60.5v251.7H209.3l-9.2-10h9.2V174.35H213l12.5,112.9H213.3l-4,3h39.6l-2.3-10h1.5ZM83.2,72.75c8.4-.1,14.3-.3,14.3,29.6,0,19.4-1.8,35.2-10.4,35.2H83.2V72.75Zm2.2,181.6H83.3v-83.3h2.2c10.6,0,13.6,17.3,13.6,41.5C99.2,241.65,97.4,254.35,85.4,254.35Zm130.6-111h-6.5V76h7.6c6.8,0,7.7,23.8,7.7,33C224.7,118.35,223.5,143.35,216,143.35Z"/><polygon points="256.8 284.85 263.2 280.35 256.8 280.35 248.1 280.35 246.8 280.35 249.1 290.35 253.3 287.35 256.8 284.85"/><polygon points="223 280.35 209.5 280.35 200.3 280.35 209.5 290.35 213.5 287.35 223 280.35"/><polygon points="337.8 280.35 322.6 280.65 322.3 280.65 324.2 290.35 328.3 287.35 337.8 280.35"/><polygon points="293.1 280.35 279.5 280.35 278.1 280.35 279.5 290.35 283.6 287.35 293.1 280.35"/><polygon points="472.1 283.15 477.5 280.35 472.1 280.15 463.9 279.85 463.9 287.35 472.1 283.15"/><polygon points="527.1 283.15 532.5 280.35 527.1 280.35 518.9 280.35 518.9 287.35 527.1 283.15"/><polygon points="549.8 290.35 563.3 280.35 549.8 280.85 547.2 280.95 549.8 290.35"/><polygon points="588.5 280.65 588.3 280.65 589.9 290.35 603.5 280.35 588.5 280.65"/><polygon points="359.4 38.65 359.4 28.55 345.9 38.65 359.4 38.65"/><polygon points="430.6 38.65 430.6 28.55 417.1 38.65 430.6 38.65"/><polygon points="270.4 38.65 270.4 28.55 256.9 38.65 270.4 38.65"/><polygon points="145.1 38.65 145.2 28.55 131.6 38.65 131.7 38.65 145.1 38.65"/><polygon points="74.1 38.65 74.1 28.55 60.6 38.65 74.1 38.65"/><path class="cls-2" d="M540.3,278.15h-8.1v-32H508v-77.5h17.1v-8.4H485.3v117.9h-8.1v-32H453v-77.5h17.1v-8.4H430.3v117.9H399c13.9-7.8,20.7-30.9,20.7-71.3,0-18.8-1.9-34.9-6.6-46.6h-54v117.9H336.9l-19.5-117.9H270v117.9h-7.6c-6.1-40.4-11.6-79.1-17-117.9H200v117.9h-8.1v-32H167.7v-77.5h17.1v-8.4H145v117.9H113.7c13.9-7.8,20.7-30.9,20.7-71.3,0-18.8-1.9-34.9-6.6-46.6h-54v120.9H562.9V165.25h3.7l12.9,115.9H603c-6.3-41.5-11.9-81.1-17.5-120.9H540.1v117.9Zm-441.6-33H96.6v-83.3h2.2c10.6,0,13.6,17.3,13.6,41.5C112.4,232.45,110.7,245.15,98.7,245.15Zm124,33V165.25h3.7l12.5,112.9H222.7Zm70.1,0v-88.3l4.1-23.8,16.5,112.1Zm91.2-33h-2.1v-83.3h2.2c10.6,0,13.6,17.3,13.6,41.5C397.7,232.45,396,245.15,384,245.15Z"/><polygon class="cls-3" points="312.9 132.45 335.8 29.45 310.4 29.45 292.8 124.95 292.8 29.45 270.1 29.45 270.1 159.45 317.4 159.45 312.9 132.45"/><path class="cls-3" d="M565.1,29.45H540.4v130h45.3c13.9-13.4,15.3-41.7,15.3-63.8C600.9,46.75,586.8,29.45,565.1,29.45Zm4.4,104.7H563V66.75h7.6c6.8,0,7.7,23.8,7.7,33C578.3,109.15,577.1,134.15,569.5,134.15Z"/><path class="cls-3" d="M260.6,95.75c0-48.9-14.1-66.3-35.8-66.3H200.1v130h45.3C259.2,146.05,260.6,117.75,260.6,95.75Zm-31.4,38.4h-6.5V66.75h7.6c6.8,0,7.7,23.8,7.7,33C238,109.15,236.8,134.15,229.2,134.15Z"/><polygon class="cls-3" points="485.3 159.45 525.2 159.45 525.2 132.95 508.1 132.95 508.1 64.35 532.2 64.35 532.2 29.45 485.3 29.45 485.3 159.45"/><polygon class="cls-3" points="430.3 159.45 470.2 159.45 470.2 132.95 453.1 132.95 453.1 64.35 477.2 64.35 477.2 29.45 430.3 29.45 430.3 159.45"/><polygon class="cls-3" points="145 159.45 184.9 159.45 184.9 132.95 167.7 132.95 167.7 64.35 191.9 64.35 191.9 29.45 145 29.45 145 159.45"/><path class="cls-3" d="M416.8,94.45c0-54.4-15.2-65-34.5-65H359.1v130h53.7c-3.1-7.4-7.4-13-13.1-16.1C411,134.85,416.8,121.45,416.8,94.45Zm-31.2,34h-3.9V63.55c8.4-.1,14.3-.3,14.3,29.6C396.1,112.65,394.2,128.45,385.6,128.45Z"/><path class="cls-3" d="M131.5,94.45c0-54.4-15.2-65-34.5-65H73.8v130h53.7c-3.1-7.4-7.4-13-13.1-16.1C125.7,134.85,131.5,121.45,131.5,94.45Zm-31.2,34H96.4V63.55c8.4-.1,14.3-.3,14.3,29.6C110.7,112.65,108.9,128.45,100.3,128.45Z"/><path class="cls-4" d="M585.6,159.45c5.1-4.9,8.6-11.9,10.8-19.8H540.3v39.6H563v-14.1h3.7l1.6,14.1h20Z"/><path class="cls-4" d="M245.3,159.45c5.1-4.9,8.6-11.9,10.8-19.8H200v39.6h22.7v-14.1h3.7l1.6,14.1h20Z"/><polygon class="cls-4" points="314.1 139.65 270.1 139.65 270.1 179.25 294.6 179.25 296.9 166.05 298.9 179.25 320.6 179.25 314.1 139.65"/><path class="cls-4" d="M73.8,179.25H96.5v-17.4h2.2c6.5,0,10.2,6.6,12,17.4h21.8c-2.6-17.6-8.3-30.5-18.3-35.9a38.94,38.94,0,0,0,4.3-3.8H73.6v39.7Z"/><polygon class="cls-4" points="485.3 179.25 508.1 179.25 508.1 168.75 525.2 168.75 525.2 139.65 485.3 139.65 485.3 179.25"/><polygon class="cls-4" points="145 179.25 167.7 179.25 167.7 168.75 184.9 168.75 184.9 139.65 145 139.65 145 179.25"/><polygon class="cls-4" points="430.3 179.25 453.1 179.25 453.1 168.75 470.2 168.75 470.2 139.65 430.3 139.65 430.3 179.25"/><path class="cls-4" d="M359.2,179.25h22.7v-17.4h2.2c6.5,0,10.2,6.6,12,17.4h21.8c-2.6-17.6-8.3-30.5-18.3-35.9a38.94,38.94,0,0,0,4.3-3.8H359v39.7Z"/></svg>