<svg id="Layer_1" data-name="Layer 1" xmlns="http://www.w3.org/2000/svg" viewBox="0 0 2786.76 302"><defs><style>.cls-1{fill:#dd4842;}.cls-2{fill:none;}.cls-3{fill:#5a9ecb;}.cls-4{fill:#fff;stroke:#000;stroke-miterlimit:10;}</style></defs><title>FOOTERBERKArtboard 2</title><rect class="cls-1" y="148.58" width="2786.76" height="174.57"/><path d="M2729.8,126.65S1538.22,144.5,1393.38,144.28C1248.54,144.5,57,126.65,57,126.65L0,148.58H2786.76Z"/><path d="M2605.25,272.16c-5.73-38.29-11-75.07-16.15-112,13.92-13.42,15.3-41.67,15.3-63.77,0-48.95-14.11-66.29-35.84-66.29h-24.72V271.88l5.43,0-5.43,2.81v4.21h-8.11v-32h-24.16V169.43h17.11v-35.8h-17.11V65.11h24.16v-35h-46.89V271.69l5.43.17-5.43,2.81v4.21h-8.11v-32h-24.16V169.43h17.11v-35.8h-17.11V65.11h24.16v-35h-46.89V278.88h-31.29c13.91-7.78,20.74-30.9,20.74-71.27,0-31.47-5.37-55.52-20-63.49,11.3-8.53,17-22,17-48.95,0-54.4-15.23-65-34.46-65h-23.16V278.88H2345l-4,3h225.56l-2.58-9.34,2.58-.11V165.93h3.75l12.86,115.93h23.54l-1.63-9.71Zm-220-207.89c8.43-.14,14.3-.28,14.3,29.65,0,19.44-1.81,35.24-10.43,35.24h-3.87Zm2.25,181.66h-2.12V162.58h2.25c10.55,0,13.61,17.34,13.61,41.53C2401.25,233.2,2399.5,245.93,2387.51,245.93Zm185.54-111h-6.49V67.48h7.55c6.8,0,7.68,23.77,7.68,33S2580.61,134.89,2573.05,134.89Z"/><polygon class="cls-2" points="2203.53 278.88 2203.53 274.63 2197.84 278.88 2203.53 278.88"/><polygon class="cls-2" points="2488.83 278.88 2488.83 274.67 2480.72 278.88 2488.83 278.88"/><polygon class="cls-2" points="2273.57 278.88 2273.57 276.39 2270.07 278.88 2273.57 278.88"/><polygon class="cls-2" points="2543.84 278.88 2543.84 274.67 2535.72 278.88 2543.84 278.88"/><polygon class="cls-2" points="2300.34 278.88 2316.96 278.88 2300.42 166.77 2296.3 190.55 2296.3 271.85 2309.84 271.85 2300.34 278.88"/><path class="cls-2" d="M2233.81,67.48h-7.55v67.41h6.49c7.55,0,8.74-25,8.74-34.4S2240.61,67.48,2233.81,67.48Z"/><polygon class="cls-2" points="2230.3 278.88 2242.53 278.88 2230 165.94 2226.25 165.94 2226.25 271.85 2239.79 271.85 2230.3 278.88"/><path class="cls-2" d="M2114.25,93.91c0-29.93-5.87-29.79-14.3-29.65v64.89h3.87C2112.44,129.16,2114.25,113.35,2114.25,93.91Z"/><path class="cls-2" d="M2102.33,162.58h-2.25v83.35h2.12c12,0,13.74-12.73,13.74-41.81C2115.94,179.92,2112.88,162.58,2102.33,162.58Z"/><path class="cls-2" d="M2574.12,67.48h-7.55v67.41h6.49c7.55,0,8.74-25,8.74-34.4S2580.92,67.48,2574.12,67.48Z"/><path class="cls-2" d="M2387.64,162.58h-2.25v83.35h2.12c12,0,13.74-12.73,13.74-41.81C2401.25,179.92,2398.19,162.58,2387.64,162.58Z"/><path class="cls-2" d="M2399.56,93.91c0-29.93-5.87-29.79-14.3-29.65v64.89h3.87C2397.75,129.16,2399.56,113.35,2399.56,93.91Z"/><polygon points="2502.31 30.15 2502.34 20.13 2488.8 30.15 2488.83 30.15 2488.83 30.15 2502.31 30.15"/><polygon points="2216.92 30.15 2216.96 20.13 2203.42 30.15 2203.53 30.15 2203.53 30.15 2216.92 30.15"/><polygon points="2557.11 30.15 2557.14 20.13 2543.6 30.15 2543.84 30.15 2543.84 30.15 2557.11 30.15"/><polygon points="2197.84 278.88 2203.53 274.63 2203.53 269.74 2196.01 267.08 2195.41 271.12 2195.41 278.88 2197.84 278.88"/><polygon points="2339.41 272.23 2316.4 133.21 2339.32 30.15 2313.91 30.15 2296.3 125.66 2296.3 30.15 2287.15 30.15 2287.15 30.15 2273.65 30.15 2273.57 30.15 2273.57 271.85 2279.94 271.85 2273.57 276.39 2273.57 278.88 2270.07 278.88 2265.88 281.87 2266.4 281.87 2273.57 281.87 2296.3 281.87 2294.93 271.85 2296.3 271.85 2296.3 190.55 2300.42 166.77 2316.96 278.88 2300.34 278.88 2296.3 281.87 2317.4 281.87 2341 281.87 2339.09 272.24 2339.41 272.23"/><path d="M2264.89,271.85c-5.71-38.19-10.94-74.86-16.1-111.65,13.92-13.42,15.3-41.67,15.3-63.77,0-48.95-14.11-66.29-35.84-66.29h-24.72V278.88h-8.11v-32h-24.16V169.43h17.11v-35.8h-17.11V65.11h24.16v-35h-46.89V278.88h-31.29c13.91-7.78,20.74-30.9,20.74-71.27,0-31.47-5.37-55.52-20-63.49,11.3-8.53,17-22,17-48.95,0-54.4-15.23-65-34.46-65h-23.16V281.87h148.9l-9.19-10h9.19V165.93H2230l12.53,112.94h-12.23l-4,3h39.63l-2.3-10ZM2100,64.27c8.43-.14,14.3-.28,14.3,29.65,0,19.44-1.81,35.24-10.43,35.24H2100Zm2.25,181.66h-2.12V162.58h2.25c10.55,0,13.61,17.34,13.61,41.53C2115.94,233.2,2114.19,245.93,2102.2,245.93Zm130.54-111h-6.49V67.48h7.55c6.81,0,7.68,23.77,7.68,33S2240.3,134.89,2232.75,134.89Z"/><polygon points="2273.57 276.39 2279.94 271.85 2273.57 271.85 2264.89 271.85 2263.58 271.85 2265.88 281.87 2270.07 278.88 2273.57 276.39"/><polygon points="2239.79 271.85 2226.25 271.85 2217.07 271.85 2226.25 281.87 2230.3 278.88 2239.79 271.85"/><polygon points="2354.54 271.85 2339.41 272.23 2339.09 272.24 2341 281.87 2345.04 278.88 2354.54 271.85"/><polygon points="2309.84 271.85 2296.3 271.85 2294.93 271.85 2296.3 281.87 2300.34 278.88 2309.84 271.85"/><polygon points="2488.83 274.67 2494.26 271.85 2488.83 271.69 2480.72 271.43 2480.72 278.88 2488.83 274.67"/><polygon points="2543.84 274.67 2549.26 271.85 2543.84 271.88 2535.72 271.92 2535.72 278.88 2543.84 274.67"/><polygon points="2566.56 281.87 2580.1 271.85 2566.56 272.42 2563.98 272.52 2566.56 281.87"/><polygon points="2605.25 272.16 2605.08 272.16 2606.71 281.87 2620.24 271.85 2605.25 272.16"/><polygon points="2376.16 30.15 2376.2 20.13 2362.66 30.15 2376.16 30.15 2376.16 30.15"/><polygon points="2447.34 30.15 2447.38 20.13 2433.84 30.15 2447.34 30.15 2447.34 30.15"/><polygon points="2287.15 30.15 2287.19 20.13 2273.65 30.15 2287.15 30.15 2287.15 30.15"/><polygon points="2161.92 30.15 2161.95 20.13 2148.42 30.15 2148.53 30.15 2161.92 30.15 2161.92 30.15"/><polygon points="2090.86 30.15 2090.89 20.13 2077.36 30.15 2090.86 30.15 2090.86 30.15"/><path class="cls-3" d="M2557.11,269.69H2549v-32h-24.16V160.24h17.11v-8.42h-39.83V269.69H2494v-32h-24.16V160.24h17.11v-8.42h-39.83V269.69h-31.29c13.91-7.78,20.74-30.9,20.74-71.27,0-18.79-1.92-34.94-6.59-46.6h-54V269.69h-22.15l-19.5-117.86h-47.43V269.69h-7.63c-6.08-40.44-11.6-79.1-17-117.86H2216.8V269.69h-8.11v-32h-24.16V160.24h17.11v-8.42H2161.8V269.69h-31.29c13.91-7.78,20.74-30.9,20.74-71.27,0-18.79-1.92-34.94-6.59-46.6h-54V272.68h489.21V156.75h3.75l12.86,115.93H2620c-6.26-41.53-11.91-81.13-17.49-120.85h-45.38Zm-441.63-33h-2.12V153.39h2.25c10.55,0,13.61,17.34,13.61,41.53C2129.21,224,2127.47,236.74,2115.48,236.74Zm124,33V156.75h3.75l12.53,112.94Zm70,0V181.36l4.12-23.77,16.54,112.1Zm91.21-33h-2.12V153.39h2.25c10.55,0,13.61,17.34,13.61,41.53C2414.52,224,2412.77,236.74,2400.79,236.74Z"/><polygon class="cls-1" points="2329.68 124.02 2352.59 20.96 2327.18 20.96 2309.57 116.47 2309.57 20.96 2286.85 20.96 2286.85 151 2334.14 151 2329.68 124.02"/><path class="cls-1" d="M2581.83,21h-24.72V151h45.28c13.91-13.43,15.28-41.67,15.28-63.75C2617.67,38.3,2603.56,21,2581.83,21Zm4.5,104.74h-6.49V58.3h7.55c6.8,0,7.68,23.77,7.68,33S2593.88,125.7,2586.33,125.7Z"/><path class="cls-1" d="M2277.36,87.25c0-48.95-14.11-66.29-35.84-66.29H2216.8V151h45.28C2276,137.57,2277.36,109.33,2277.36,87.25ZM2246,125.7h-6.49V58.3h7.55c6.81,0,7.68,23.77,7.68,33S2253.57,125.7,2246,125.7Z"/><polygon class="cls-1" points="2502.11 151 2541.94 151 2541.94 124.44 2524.83 124.44 2524.83 55.92 2549 55.92 2549 20.96 2502.11 20.96 2502.11 151"/><polygon class="cls-1" points="2447.11 151 2486.94 151 2486.94 124.44 2469.83 124.44 2469.83 55.92 2493.99 55.92 2493.99 20.96 2447.11 20.96 2447.11 151"/><polygon class="cls-1" points="2161.8 151 2201.63 151 2201.63 124.44 2184.53 124.44 2184.53 55.92 2208.69 55.92 2208.69 20.96 2161.8 20.96 2161.8 151"/><path class="cls-1" d="M2433.56,86c0-54.4-15.23-65-34.46-65h-23.16V151h53.69c-3.12-7.44-7.41-13-13.11-16.07C2427.82,126.4,2433.56,113,2433.56,86Zm-31.15,34h-3.87V55.08c8.43-.14,14.3-.28,14.3,29.65C2412.83,104.17,2411,120,2402.41,120Z"/><path class="cls-1" d="M2148.26,86c0-54.4-15.23-65-34.46-65h-23.16V151h53.69c-3.12-7.44-7.41-13-13.11-16.07C2142.51,126.4,2148.26,113,2148.26,86Zm-31.15,34h-3.87V55.08c8.43-.14,14.3-.28,14.3,29.65C2127.53,104.17,2125.72,120,2117.1,120Z"/><path class="cls-4" d="M2602.37,151c5.13-4.95,8.55-11.91,10.84-19.84h-56.1v39.65h22.73V156.75h3.75l1.56,14.08h20Q2603.76,160.92,2602.37,151Z"/><path class="cls-4" d="M2262.07,151c5.13-4.95,8.55-11.91,10.84-19.84h-56.1v39.65h22.73V156.75h3.75l1.56,14.08h20Q2263.46,160.92,2262.07,151Z"/><polygon class="cls-4" points="2330.86 131.18 2286.85 131.18 2286.85 170.82 2311.4 170.82 2313.7 157.59 2315.65 170.82 2337.42 170.82 2330.86 131.18"/><path class="cls-4" d="M2090.63,170.82h22.73V153.39h2.25c6.53,0,10.19,6.64,12,17.43h21.85c-2.61-17.59-8.28-30.47-18.27-35.89a37.91,37.91,0,0,0,4.28-3.76h-44.86Z"/><polygon class="cls-4" points="2502.11 170.82 2524.83 170.82 2524.83 160.24 2541.94 160.24 2541.94 131.18 2502.11 131.18 2502.11 170.82"/><polygon class="cls-4" points="2161.8 170.82 2184.53 170.82 2184.53 160.24 2201.63 160.24 2201.63 131.18 2161.8 131.18 2161.8 170.82"/><polygon class="cls-4" points="2447.11 170.82 2469.83 170.82 2469.83 160.24 2486.94 160.24 2486.94 131.18 2447.11 131.18 2447.11 170.82"/><path class="cls-4" d="M2375.94,170.82h22.73V153.39h2.25c6.53,0,10.19,6.64,12,17.43h21.85c-2.61-17.59-8.28-30.47-18.27-35.89a37.91,37.91,0,0,0,4.28-3.76h-44.86Z"/></svg>