<svg id="Layer_1" data-name="Layer 1" xmlns="http://www.w3.org/2000/svg" xmlns:xlink="http://www.w3.org/1999/xlink" viewBox="0 0 500 500"><defs><style>.cls-1,.cls-6,.cls-8{fill:none;}.cls-2{opacity:0.29;}.cls-3{clip-path:url(#clip-path);}.cls-4{fill:#fff;}.cls-5,.cls-7{fill:#fb0;}.cls-6,.cls-7{stroke:#203040;}.cls-6,.cls-7,.cls-8{stroke-linecap:round;stroke-linejoin:round;stroke-width:4px;}.cls-8{stroke:#fff;}</style><clipPath id="clip-path"><rect class="cls-1" width="500" height="500"/></clipPath></defs><title>BBERFOND2Artboard 2</title><g class="cls-2"><g class="cls-3"><rect class="cls-4" width="500" height="500"/><path class="cls-5" d="M163.86,481.65l11.38-11.39,32.08,35.65a55.09,55.09,0,0,1-9.6,13c-7.21,6.93-13,9.6-13,9.6L143,490.85l4.88-4.29,19.37,17.61s6.18-6.23-7.86-15.05l.2-3.24Z"/><path class="cls-6" d="M143,490.85l41.7,37.67s5.81-2.67,13-9.6a55.09,55.09,0,0,0,9.6-13l-32.08-35.65-11.38,11.39"/><path class="cls-6" d="M144.68,489.76c-4.19,4.18-11.4-2.29-4.48-9.25,7.39-7.43,7.63-1,10.6-11.15,0,0,2.61-4.22,6.86-2.9,0,0-5-7.64,4-10.57s9.47,8.88,9.32,9.32l-14.57,14.57s4.26,2.65,3,9.33c0,0,14.77,8,7.86,15.05l-19.37-17.61Z"/><path class="cls-6" d="M92.93,508.08C91.48,502.8,86,496.62,72.6,494.71c0,0-.27,17.33,12.63,20.54"/><path class="cls-6" d="M95.73,509.34A17.07,17.07,0,0,1,98.88,499s11.84,7.29,13.14,18.29"/><path class="cls-6" d="M97.68,501.07c-1.59-4.1-11.86-11.86-11.86-11.86a14.06,14.06,0,0,0-.72,9.49"/><line class="cls-6" x1="67.96" y1="499.35" x2="57.71" y2="489.15"/><line class="cls-6" x1="66.67" y1="488.78" x2="55.43" y2="477.55"/><line class="cls-6" x1="67.12" y1="479.74" x2="77.34" y2="489.97"/><line class="cls-6" x1="66.42" y1="508.62" x2="59.1" y2="501.3"/><line class="cls-6" x1="85.67" y1="489.36" x2="78.36" y2="482.04"/><path class="cls-5" d="M421.68,481.65l11.38-11.39,32.08,35.65a55.07,55.07,0,0,1-9.6,13c-7.21,6.93-13,9.6-13,9.6l-41.7-37.67,4.88-4.29,19.37,17.61s6.18-6.23-7.86-15.05l.2-3.24Z"/><path class="cls-6" d="M400.82,490.85l41.7,37.67s5.81-2.67,13-9.6a55.07,55.07,0,0,0,9.6-13l-32.08-35.65-11.38,11.39"/><path class="cls-6" d="M402.5,489.76c-4.19,4.18-11.4-2.29-4.48-9.25,7.39-7.43,7.63-1,10.6-11.15,0,0,2.61-4.22,6.86-2.9,0,0-5-7.64,4-10.57s9.47,8.88,9.32,9.32L414.2,479.78s4.26,2.65,3,9.33c0,0,14.77,8,7.86,15.05L405.7,486.56Z"/><path class="cls-6" d="M350.75,508.08c-1.46-5.29-6.9-11.46-20.33-13.37,0,0-.27,17.33,12.63,20.54"/><path class="cls-6" d="M353.55,509.34A17.07,17.07,0,0,1,356.7,499s11.84,7.29,13.14,18.29"/><path class="cls-6" d="M355.49,501.07c-1.59-4.1-11.86-11.86-11.86-11.86a14.07,14.07,0,0,0-.72,9.49"/><line class="cls-6" x1="325.78" y1="499.35" x2="315.53" y2="489.15"/><line class="cls-6" x1="324.48" y1="488.78" x2="313.25" y2="477.55"/><line class="cls-6" x1="324.94" y1="479.74" x2="335.16" y2="489.97"/><line class="cls-6" x1="324.23" y1="508.62" x2="316.92" y2="501.3"/><line class="cls-6" x1="343.49" y1="489.36" x2="336.17" y2="482.04"/><path class="cls-6" d="M521.64,54.13l29.79,29.79s-21.71,44.44-48.49,35.24L486.4,102.62C479.64,82.94,501.85,66,514.1,58.4l18.53,18.53"/><path class="cls-7" d="M547.62,90.72c-7.36,12.07-24.59,35.34-44.67,28.44L486.4,102.62C479.64,82.94,501.85,66,514.1,58.4l18.53,18.53"/><path class="cls-8" d="M500.2,81.52c3.08-4.82,7.77-9,12.35-12.24"/><path class="cls-8" d="M494.47,97.63a17.56,17.56,0,0,1,1.91-9.74"/><path class="cls-6" d="M521.64,414.48l29.79,29.79s-21.71,44.44-48.49,35.24L486.4,463c-6.76-19.68,15.45-36.62,27.7-44.22l18.53,18.53"/><path class="cls-7" d="M547.62,451.07c-7.36,12.07-24.59,35.34-44.67,28.44L486.4,463c-6.76-19.68,15.45-36.62,27.7-44.22l18.53,18.53"/><path class="cls-8" d="M500.2,441.87c3.08-4.83,7.77-9,12.35-12.24"/><path class="cls-8" d="M494.47,458a17.57,17.57,0,0,1,1.91-9.74"/><path class="cls-6" d="M491.42,296.53l29.79-29.79s44.44,21.71,35.24,48.49l-16.55,16.55c-19.68,6.76-36.62-15.45-44.22-27.7l18.53-18.53"/><path class="cls-7" d="M528,270.55c12.07,7.36,35.34,24.59,28.44,44.67l-16.55,16.55c-19.68,6.76-36.62-15.45-44.22-27.7l18.53-18.53"/><path class="cls-6" d="M491.42,296.53s-11.52-5.83-7.49-12.94,9.63-7.08,14.2-4c0,0-1.82-6.08,3.18-8.46,4.14-2,7.13,1.56,7.13,1.56s-1.91-6,4.42-9.5c3.7-2.06,7,1,8.35,3.54"/><path class="cls-5" d="M163.86-18.35l11.38-11.39L207.32,5.91a55.09,55.09,0,0,1-9.6,13c-7.21,6.93-13,9.6-13,9.6L143-9.15l4.88-4.29L167.25,4.17s6.18-6.23-7.86-15.05l.2-3.24Z"/><path class="cls-6" d="M143-9.15l41.7,37.67s5.81-2.67,13-9.6a55.09,55.09,0,0,0,9.6-13L175.25-29.74,163.86-18.35"/><path class="cls-6" d="M144.68-10.24c-4.19,4.18-11.4-2.29-4.48-9.25,7.39-7.43,7.63-1,10.6-11.15,0,0,2.61-4.22,6.86-2.9,0,0-5-7.64,4-10.57s9.47,8.88,9.32,9.32L156.38-20.22s4.26,2.65,3,9.33c0,0,14.77,8,7.86,15.05L147.88-13.44Z"/><line class="cls-8" x1="171.98" y1="8.81" x2="181.18" y2="17.28"/><path class="cls-5" d="M163.86,196.12l11.38-11.39,32.08,35.65a55.08,55.08,0,0,1-9.6,13c-7.21,6.93-13,9.6-13,9.6L143,205.32l4.88-4.29,19.37,17.61s6.18-6.23-7.86-15.05l.2-3.24Z"/><path class="cls-6" d="M143,205.32,184.71,243s5.81-2.67,13-9.6a55.08,55.08,0,0,0,9.6-13l-32.08-35.65-11.38,11.39"/><path class="cls-6" d="M144.68,204.23c-4.19,4.18-11.4-2.29-4.48-9.25,7.39-7.43,7.63-1,10.6-11.15,0,0,2.61-4.22,6.86-2.9,0,0-5-7.64,4-10.57s9.47,8.88,9.32,9.32l-14.57,14.57s4.26,2.65,3,9.33c0,0,14.77,8,7.86,15.05L147.88,201Z"/><line class="cls-8" x1="171.98" y1="223.28" x2="181.18" y2="231.75"/><path class="cls-6" d="M178.88,94.77s-9.62,35.51-39.14,31.48c-11.83-1.61-3.78,19.9-9.43,21.17-1.53.34-22-20.14-21.72-21.72,1.05-5.7,22.78,2.4,21.17-9.43-4-29.52,31.48-39.14,31.48-39.14Z"/><path class="cls-7" d="M174.4,105.58c-5.37,10.08-16.08,23.22-34.66,20.68-11.83-1.61-3.78,19.9-9.43,21.17-1.53.34-22-20.14-21.72-21.72,1.05-5.7,22.78,2.4,21.17-9.43-2.57-18.85,11-29.58,21.11-34.88"/><path class="cls-8" d="M149.33,90.53a28.46,28.46,0,0,0-10.94,23"/><line class="cls-6" x1="118.29" y1="129.17" x2="132.5" y2="143.38"/><path class="cls-6" d="M178.88,281.67s-9.62,35.52-39.14,31.48c-11.83-1.62-3.78,19.9-9.43,21.17-1.53.34-22-20.14-21.72-21.72,1.05-5.69,22.78,2.4,21.17-9.43-4-29.52,31.48-39.14,31.48-39.14Z"/><path class="cls-7" d="M174.4,292.47c-5.37,10.08-16.08,23.22-34.66,20.68-11.83-1.62-3.78,19.9-9.43,21.17-1.53.34-22-20.14-21.72-21.72,1.05-5.69,22.78,2.4,21.17-9.43-2.57-18.85,11-29.58,21.11-34.88"/><path class="cls-8" d="M149.33,277.43a28.45,28.45,0,0,0-10.94,23"/><line class="cls-6" x1="118.29" y1="316.07" x2="132.5" y2="330.27"/><path class="cls-6" d="M448.67,94.77s-9.62,35.51-39.14,31.48c-11.83-1.61-3.78,19.9-9.43,21.17-1.53.34-22-20.14-21.72-21.72,1.05-5.7,22.78,2.4,21.17-9.43C395.51,86.75,431,77.13,431,77.13Z"/><path class="cls-7" d="M444.18,105.58c-5.37,10.08-16.08,23.22-34.66,20.68-11.83-1.61-3.78,19.9-9.43,21.17-1.53.34-22-20.14-21.72-21.72,1.05-5.7,22.78,2.4,21.17-9.43-2.57-18.85,11-29.58,21.11-34.88"/><path class="cls-8" d="M419.11,90.53a28.45,28.45,0,0,0-10.94,23"/><line class="cls-6" x1="388.08" y1="129.17" x2="402.28" y2="143.38"/><path class="cls-6" d="M21.64,54.13,51.43,83.92S29.72,128.36,2.94,119.16L-13.6,102.62C-20.36,82.94,1.85,66,14.1,58.4L32.62,76.92"/><path class="cls-7" d="M47.62,90.72C40.26,102.79,23,126.06,2.94,119.16L-13.6,102.62C-20.36,82.94,1.85,66,14.1,58.4L32.62,76.92"/><path class="cls-8" d="M.2,81.52c3.08-4.82,7.77-9,12.35-12.24"/><path class="cls-6" d="M47.24,91.34l11.09,11.09S36.79,134.5,19,118.76"/><path class="cls-6" d="M21.64,54.13s5.83-11.52,12.95-7.49,7.08,9.63,4,14.2c0,0,6.08-1.82,8.46,3.18,2,4.14-1.56,7.13-1.56,7.13s6-1.92,9.5,4.42c2.06,3.71-1,7-3.54,8.35"/><path class="cls-6" d="M21.64,414.48l29.79,29.79S29.72,488.71,2.94,479.51L-13.6,463c-6.76-19.68,15.45-36.62,27.7-44.22l18.53,18.53"/><path class="cls-7" d="M47.62,451.07C40.26,463.14,23,486.41,2.94,479.51L-13.6,463c-6.76-19.68,15.45-36.62,27.7-44.22l18.53,18.53"/><path class="cls-8" d="M.2,441.87c3.08-4.83,7.77-9,12.35-12.24"/><path class="cls-6" d="M47.24,451.69l11.09,11.09S36.79,494.85,19,479.11"/><path class="cls-6" d="M21.64,414.48S27.47,403,34.58,407s7.08,9.63,4,14.2c0,0,6.08-1.82,8.46,3.18,2,4.14-1.56,7.13-1.56,7.13s6-1.92,9.5,4.42c2.06,3.71-1,7-3.54,8.35"/><path class="cls-6" d="M263.32,414.48l29.79,29.79s-21.71,44.44-48.49,35.24L228.08,463c-6.76-19.68,15.45-36.62,27.7-44.22l18.53,18.53"/><path class="cls-7" d="M289.3,451.07c-7.36,12.07-24.59,35.34-44.67,28.44L228.08,463c-6.76-19.68,15.45-36.62,27.7-44.22l18.53,18.53"/><path class="cls-8" d="M241.88,441.87c3.08-4.83,7.76-9,12.35-12.24"/><path class="cls-8" d="M236.15,458a17.56,17.56,0,0,1,1.91-9.74"/><path class="cls-6" d="M288.92,451.69,300,462.79s-21.54,32.07-39.34,16.33"/><path class="cls-6" d="M263.32,414.48S269.15,403,276.26,407s7.08,9.63,4,14.2c0,0,6.08-1.82,8.46,3.18,2,4.14-1.56,7.13-1.56,7.13s6-1.92,9.5,4.42c2.06,3.71-1,7-3.54,8.35"/><path class="cls-6" d="M-8.58,296.53l29.79-29.79s44.44,21.71,35.24,48.49L39.91,331.77c-19.68,6.76-36.62-15.45-44.22-27.7l18.53-18.53"/><path class="cls-7" d="M28,270.55c12.07,7.36,35.34,24.59,28.44,44.67L39.91,331.77c-19.68,6.76-36.62-15.45-44.22-27.7l18.53-18.53"/><path class="cls-8" d="M18.81,318c-4.82-3.08-9-7.77-12.24-12.35"/><path class="cls-8" d="M34.92,323.69a17.53,17.53,0,0,1-9.74-1.91"/><path class="cls-6" d="M28.63,270.93l11.09-11.09s32.06,21.54,16.32,39.34"/><path class="cls-6" d="M-8.58,296.53s-11.52-5.83-7.49-12.94,9.63-7.08,14.2-4c0,0-1.82-6.08,3.18-8.46,4.14-2,7.13,1.56,7.13,1.56s-1.92-6,4.42-9.5c3.7-2.06,7,1,8.35,3.54"/><path class="cls-6" d="M291.92,54.13l29.79,29.79S300,128.36,273.23,119.16l-16.55-16.55C249.93,82.94,272.14,66,284.38,58.4l18.53,18.53"/><path class="cls-7" d="M317.9,90.72c-7.36,12.07-24.59,35.34-44.67,28.44l-16.55-16.55C249.93,82.94,272.14,66,284.38,58.4l18.53,18.53"/><path class="cls-8" d="M270.49,81.52c3.08-4.82,7.77-9,12.34-12.24"/><path class="cls-8" d="M264.76,97.63a17.56,17.56,0,0,1,1.91-9.74"/><path class="cls-6" d="M317.52,91.34l11.09,11.09s-21.54,32.06-39.34,16.33"/><path class="cls-6" d="M291.92,54.13s5.83-11.52,12.95-7.49,7.08,9.63,4,14.2c0,0,6.08-1.82,8.46,3.18,2,4.14-1.56,7.13-1.56,7.13s6-1.92,9.5,4.42c2.06,3.71-1,7-3.54,8.35"/><path class="cls-6" d="M113.87,36.62s.4-18.55-18.3-18C95.57,18.62,93.41,35.41,113.87,36.62Z"/><path class="cls-6" d="M92.93,8.08C91.48,2.8,86-3.38,72.6-5.29c0,0-.27,17.33,12.63,20.54"/><path class="cls-6" d="M105.25,20.63C103.31,12,94.7,7.26,82.83,5.58c0,0,1.12,16.86,13.89,21.58"/><line class="cls-6" x1="120.78" y1="43.53" x2="123.9" y2="46.65"/><path class="cls-6" d="M110.33,25.06c.39-6.63,4.3-13.81,4.3-13.81,15,15.21-.77,25.37-.77,25.37l2.3,2.3"/><path class="cls-6" d="M113.07,37.42s-10.16,15.72-25.37.77c0,0,7.18-3.91,13.82-4.3"/><path class="cls-6" d="M95.73,9.34A17.07,17.07,0,0,1,98.88-1S110.72,6.31,112,17.3"/><path class="cls-6" d="M86.16,18.91a17,17,0,0,0-10.32,3.15S83.13,33.9,94.13,35.21"/><path class="cls-6" d="M97.68,1.07C96.09-3,85.82-10.78,85.82-10.78a14.06,14.06,0,0,0-.72,9.49"/><line class="cls-6" x1="67.96" y1="-0.65" x2="57.71" y2="-10.85"/><path class="cls-6" d="M75.9,7.9a14.08,14.08,0,0,0-9.49.71s7.75,10.27,11.86,11.86"/><line class="cls-6" x1="66.42" y1="8.62" x2="59.1" y2="1.3"/><path class="cls-6" d="M65.15,227.38s18.55.4,18-18.3C83.14,209.07,66.36,206.92,65.15,227.38Z"/><path class="cls-6" d="M93.68,206.44C99,205,105.14,199.55,107,186.11c0,0-17.33-.27-20.54,12.63"/><path class="cls-6" d="M81.14,218.76c8.67-1.94,13.37-10.55,15.05-22.42,0,0-16.86,1.12-21.58,13.9"/><line class="cls-6" x1="58.24" y1="234.29" x2="55.12" y2="237.41"/><path class="cls-6" d="M76.7,223.84c6.63.39,13.82,4.3,13.82,4.3-15.21,15-25.37-.77-25.37-.77l-2.3,2.3"/><path class="cls-6" d="M64.35,226.58s-15.72-10.17-.77-25.37c0,0,3.91,7.19,4.3,13.82"/><path class="cls-6" d="M92.43,209.24a17.06,17.06,0,0,1,10.32,3.15s-7.29,11.84-18.29,13.14"/><path class="cls-6" d="M82.85,199.67a17,17,0,0,0-3.15-10.32s-11.84,7.29-13.15,18.29"/><path class="cls-6" d="M100.69,211.18c4.1-1.59,11.86-11.86,11.86-11.86a14.06,14.06,0,0,0-9.49-.72"/><line class="cls-6" x1="102.41" y1="181.47" x2="112.62" y2="171.22"/><path class="cls-6" d="M93.86,189.41a14.08,14.08,0,0,0-.71-9.49s-10.27,7.75-11.86,11.86"/><line class="cls-6" x1="112.99" y1="180.17" x2="124.22" y2="168.94"/><line class="cls-6" x1="122.02" y1="180.63" x2="111.79" y2="190.85"/><line class="cls-6" x1="93.15" y1="179.92" x2="100.46" y2="172.61"/><line class="cls-6" x1="112.41" y1="199.18" x2="119.72" y2="191.87"/><path class="cls-5" d="M421.68-18.35l11.38-11.39L465.14,5.91a55.07,55.07,0,0,1-9.6,13c-7.21,6.93-13,9.6-13,9.6L400.82-9.15l4.88-4.29L425.07,4.17s6.18-6.23-7.86-15.05l.2-3.24Z"/><path class="cls-6" d="M400.82-9.15l41.7,37.67s5.81-2.67,13-9.6a55.07,55.07,0,0,0,9.6-13L433.06-29.74,421.68-18.35"/><path class="cls-6" d="M402.5-10.24c-4.19,4.18-11.4-2.29-4.48-9.25,7.39-7.43,7.63-1,10.6-11.15,0,0,2.61-4.22,6.86-2.9,0,0-5-7.64,4-10.57s9.47,8.88,9.32,9.32L414.2-20.22s4.26,2.65,3,9.33c0,0,14.77,8,7.86,15.05L405.7-13.44Z"/><line class="cls-8" x1="429.8" y1="8.81" x2="439" y2="17.28"/><path class="cls-6" d="M371.68,36.62s.4-18.55-18.3-18C353.38,18.62,351.23,35.41,371.68,36.62Z"/><path class="cls-6" d="M350.75,8.08c-1.46-5.29-6.9-11.46-20.33-13.37,0,0-.27,17.33,12.63,20.54"/><path class="cls-6" d="M363.07,20.63C361.13,12,352.52,7.26,340.64,5.58c0,0,1.12,16.86,13.9,21.58"/><line class="cls-6" x1="378.6" y1="43.53" x2="381.72" y2="46.65"/><path class="cls-6" d="M368.15,25.06c.39-6.63,4.3-13.81,4.3-13.81,15,15.21-.77,25.37-.77,25.37l2.3,2.3"/><path class="cls-6" d="M370.88,37.42s-10.16,15.72-25.37.77c0,0,7.18-3.91,13.81-4.3"/><path class="cls-6" d="M353.55,9.34A17.07,17.07,0,0,1,356.7-1s11.84,7.29,13.14,18.29"/><path class="cls-6" d="M344,18.91a17,17,0,0,0-10.32,3.15S341,33.9,351.94,35.21"/><path class="cls-6" d="M355.49,1.07C353.9-3,343.63-10.78,343.63-10.78a14.07,14.07,0,0,0-.72,9.49"/><line class="cls-6" x1="325.78" y1="-0.65" x2="315.53" y2="-10.85"/><path class="cls-6" d="M333.72,7.9a14.07,14.07,0,0,0-9.49.71S332,18.89,336.09,20.47"/><line class="cls-6" x1="324.23" y1="8.62" x2="316.92" y2="1.3"/><path class="cls-6" d="M208.12,72.21s18.55.4,18-18.3C226.12,53.91,209.33,51.76,208.12,72.21Z"/><line class="cls-6" x1="201.21" y1="79.13" x2="198.09" y2="82.25"/><path class="cls-6" d="M219.68,68.68c6.63.39,13.81,4.3,13.81,4.3-15.2,15-25.37-.77-25.37-.77l-2.3,2.3"/><path class="cls-6" d="M207.32,71.41S191.6,61.25,206.55,46c0,0,3.91,7.19,4.3,13.82"/><path class="cls-6" d="M36.85,174.61s18.55.4,18-18.3C54.84,156.31,38.05,154.15,36.85,174.61Z"/><line class="cls-6" x1="29.93" y1="181.52" x2="26.82" y2="184.64"/><path class="cls-6" d="M48.4,171.07c6.63.39,13.81,4.3,13.81,4.3-15.21,15-25.37-.77-25.37-.77l-2.3,2.3"/><path class="cls-6" d="M36,173.81s-15.72-10.16-.77-25.37c0,0,3.91,7.19,4.3,13.82"/><path class="cls-6" d="M255.75,174.61s18.55.4,18-18.3C273.75,156.31,257,154.15,255.75,174.61Z"/><line class="cls-6" x1="248.84" y1="181.52" x2="245.72" y2="184.64"/><path class="cls-6" d="M267.31,171.07c6.63.39,13.81,4.3,13.81,4.3-15.21,15-25.37-.77-25.37-.77l-2.3,2.3"/><path class="cls-6" d="M255,173.81s-15.72-10.16-.77-25.37c0,0,3.91,7.19,4.3,13.82"/><path class="cls-6" d="M208.12,309.37s18.55.4,18-18.3C226.12,291.07,209.33,288.92,208.12,309.37Z"/><line class="cls-6" x1="201.21" y1="316.29" x2="198.09" y2="319.41"/><path class="cls-6" d="M219.68,305.84c6.63.39,13.81,4.3,13.81,4.3-15.2,15-25.37-.77-25.37-.77l-2.3,2.3"/><path class="cls-6" d="M207.32,308.57s-15.72-10.17-.77-25.37c0,0,3.91,7.19,4.3,13.82"/><line class="cls-6" x1="81.16" y1="98.65" x2="91.36" y2="88.4"/><line class="cls-6" x1="91.73" y1="97.35" x2="102.96" y2="86.12"/><line class="cls-6" x1="100.76" y1="97.8" x2="90.54" y2="108.03"/><line class="cls-6" x1="81.16" y1="281.08" x2="91.36" y2="270.83"/><line class="cls-6" x1="91.73" y1="279.78" x2="102.96" y2="268.55"/><line class="cls-6" x1="100.76" y1="280.23" x2="90.54" y2="290.46"/><path class="cls-5" d="M434,196.12l11.38-11.39,32.08,35.65a55.11,55.11,0,0,1-9.6,13c-7.21,6.93-13,9.6-13,9.6l-41.7-37.67,4.88-4.29,19.37,17.61s6.18-6.23-7.86-15.05l.19-3.24Z"/><path class="cls-6" d="M413.19,205.32,454.89,243s5.81-2.67,13-9.6a55.11,55.11,0,0,0,9.6-13l-32.08-35.65L434,196.12"/><path class="cls-6" d="M414.87,204.23c-4.19,4.18-11.4-2.29-4.48-9.25,7.39-7.43,7.63-1,10.59-11.15,0,0,2.61-4.22,6.87-2.9,0,0-5-7.64,4-10.57s9.47,8.88,9.32,9.32l-14.57,14.57s4.26,2.65,3,9.33c0,0,14.77,8,7.86,15.05L418.07,201Z"/><line class="cls-8" x1="442.17" y1="223.28" x2="451.37" y2="231.75"/><path class="cls-6" d="M449.07,281.67s-9.62,35.52-39.15,31.48c-11.83-1.62-3.78,19.9-9.43,21.17-1.53.34-22-20.14-21.72-21.72,1.05-5.69,22.78,2.4,21.17-9.43-4-29.52,31.48-39.14,31.48-39.14Z"/><path class="cls-7" d="M444.59,292.47c-5.38,10.08-16.08,23.22-34.66,20.68-11.83-1.62-3.78,19.9-9.43,21.17-1.53.34-22-20.14-21.72-21.72,1.05-5.69,22.78,2.4,21.17-9.43-2.57-18.85,11-29.58,21.1-34.88"/><path class="cls-8" d="M419.52,277.43a28.45,28.45,0,0,0-10.94,23"/><line class="cls-6" x1="388.48" y1="316.07" x2="402.68" y2="330.27"/><path class="cls-6" d="M261.61,296.53l29.79-29.79s44.43,21.71,35.24,48.49l-16.55,16.55c-19.68,6.76-36.62-15.45-44.22-27.7l18.53-18.53"/><path class="cls-7" d="M298.2,270.55c12.07,7.36,35.34,24.59,28.44,44.67l-16.55,16.55c-19.68,6.76-36.62-15.45-44.22-27.7l18.53-18.53"/><path class="cls-8" d="M289,318c-4.82-3.08-9-7.77-12.24-12.35"/><path class="cls-8" d="M305.1,323.69a17.53,17.53,0,0,1-9.74-1.91"/><path class="cls-6" d="M298.82,270.93l11.09-11.09s32.06,21.54,16.32,39.34"/><path class="cls-6" d="M261.61,296.53s-11.52-5.83-7.49-12.94,9.63-7.08,14.2-4c0,0-1.82-6.08,3.18-8.46,4.14-2,7.13,1.56,7.13,1.56s-1.91-6,4.42-9.5c3.7-2.06,7,1,8.36,3.54"/><path class="cls-6" d="M335.34,227.38s18.55.4,18-18.3C353.33,209.07,336.54,206.92,335.34,227.38Z"/><path class="cls-6" d="M363.87,206.44c5.29-1.46,11.46-6.9,13.37-20.33,0,0-17.33-.27-20.54,12.63"/><path class="cls-6" d="M351.32,218.76c8.67-1.94,13.37-10.55,15.05-22.42,0,0-16.86,1.12-21.57,13.9"/><line class="cls-6" x1="328.42" y1="234.29" x2="325.3" y2="237.41"/><path class="cls-6" d="M346.89,223.84c6.63.39,13.82,4.3,13.82,4.3-15.21,15-25.37-.77-25.37-.77l-2.3,2.3"/><path class="cls-6" d="M334.53,226.58s-15.72-10.17-.77-25.37c0,0,3.91,7.19,4.3,13.82"/><path class="cls-6" d="M362.61,209.24a17.06,17.06,0,0,1,10.32,3.15s-7.29,11.84-18.29,13.14"/><path class="cls-6" d="M353,199.67a17,17,0,0,0-3.15-10.32s-11.84,7.29-13.15,18.29"/><path class="cls-6" d="M370.88,211.18c4.1-1.59,11.86-11.86,11.86-11.86a14.06,14.06,0,0,0-9.49-.72"/><line class="cls-6" x1="372.6" y1="181.47" x2="382.8" y2="171.22"/><path class="cls-6" d="M364,189.41a14.08,14.08,0,0,0-.71-9.49s-10.27,7.75-11.86,11.86"/><line class="cls-6" x1="383.17" y1="180.17" x2="394.4" y2="168.94"/><line class="cls-6" x1="392.21" y1="180.63" x2="381.98" y2="190.85"/><line class="cls-6" x1="363.33" y1="179.92" x2="370.65" y2="172.61"/><line class="cls-6" x1="382.59" y1="199.18" x2="389.91" y2="191.87"/><line class="cls-6" x1="351.34" y1="281.08" x2="361.55" y2="270.83"/><line class="cls-6" x1="361.91" y1="279.78" x2="373.15" y2="268.55"/><line class="cls-6" x1="370.95" y1="280.23" x2="360.73" y2="290.46"/><line class="cls-6" x1="354.81" y1="93.31" x2="365.02" y2="83.06"/><line class="cls-6" x1="365.38" y1="92.01" x2="376.62" y2="80.78"/><line class="cls-6" x1="374.42" y1="92.46" x2="364.19" y2="102.69"/><line class="cls-6" x1="194.58" y1="137.85" x2="204.78" y2="127.6"/><line class="cls-6" x1="205.15" y1="136.55" x2="216.38" y2="125.32"/><line class="cls-6" x1="214.18" y1="137" x2="203.96" y2="147.23"/><line class="cls-6" x1="314.03" y1="162.69" x2="324.24" y2="152.44"/><line class="cls-6" x1="324.6" y1="161.4" x2="335.84" y2="150.17"/><line class="cls-6" x1="333.64" y1="161.85" x2="323.41" y2="172.08"/><line class="cls-6" x1="194.58" y1="439.44" x2="204.78" y2="429.19"/><line class="cls-6" x1="205.15" y1="438.14" x2="216.38" y2="426.91"/><line class="cls-6" x1="214.18" y1="438.6" x2="203.96" y2="448.83"/><line class="cls-6" x1="314.03" y1="463.28" x2="324.24" y2="453.03"/><line class="cls-6" x1="324.6" y1="461.98" x2="335.84" y2="450.75"/><line class="cls-6" x1="333.64" y1="462.44" x2="323.41" y2="472.66"/><line class="cls-6" x1="466.61" y1="161.16" x2="476.81" y2="150.9"/><line class="cls-6" x1="477.18" y1="159.86" x2="488.41" y2="148.63"/><line class="cls-6" x1="486.21" y1="160.31" x2="475.99" y2="170.54"/><line class="cls-6" x1="264.72" y1="34.94" x2="254.47" y2="24.74"/><line class="cls-6" x1="263.42" y1="24.37" x2="252.19" y2="13.13"/><line class="cls-6" x1="263.87" y1="15.33" x2="274.1" y2="25.56"/><line class="cls-6" x1="264.72" y1="234.18" x2="254.47" y2="223.98"/><line class="cls-6" x1="263.42" y1="223.61" x2="252.19" y2="212.38"/><line class="cls-6" x1="263.87" y1="214.58" x2="274.1" y2="224.8"/><line class="cls-6" x1="508.47" y1="34.94" x2="498.22" y2="24.74"/><line class="cls-6" x1="507.17" y1="24.37" x2="495.94" y2="13.13"/><path class="cls-5" d="M163.86,370l11.38-11.39,32.08,35.65a55.08,55.08,0,0,1-9.6,13c-7.21,6.93-13,9.6-13,9.6L143,379.17l4.88-4.29,19.37,17.61s6.18-6.23-7.86-15.06l.2-3.24Z"/><path class="cls-6" d="M143,379.17l41.7,37.67s5.81-2.67,13-9.6a55.08,55.08,0,0,0,9.6-13l-32.08-35.65L163.86,370"/><path class="cls-6" d="M144.68,378.08c-4.19,4.18-11.4-2.29-4.48-9.25,7.39-7.43,7.63-1,10.6-11.14,0,0,2.61-4.22,6.86-2.9,0,0-5-7.64,4-10.57s9.47,8.88,9.32,9.32L156.38,368.1s4.26,2.65,3,9.33c0,0,14.77,8,7.86,15.06l-19.37-17.61Z"/><line class="cls-8" x1="171.98" y1="397.13" x2="181.18" y2="405.6"/><path class="cls-6" d="M113.87,420.91s.4-18.55-18.3-18C95.57,402.91,93.41,419.7,113.87,420.91Z"/><path class="cls-6" d="M92.93,392.38C91.48,387.09,86,380.91,72.6,379c0,0-.27,17.33,12.63,20.53"/><path class="cls-6" d="M105.25,404.92c-1.94-8.67-10.55-13.36-22.42-15.05,0,0,1.12,16.86,13.89,21.58"/><line class="cls-6" x1="120.78" y1="427.82" x2="123.9" y2="430.94"/><path class="cls-6" d="M110.33,409.35c.39-6.63,4.3-13.82,4.3-13.82,15,15.21-.77,25.37-.77,25.37l2.3,2.3"/><path class="cls-6" d="M113.07,421.71s-10.16,15.72-25.37.77c0,0,7.18-3.91,13.82-4.3"/><path class="cls-6" d="M95.73,393.63a17.08,17.08,0,0,1,3.15-10.32S110.72,390.6,112,401.6"/><path class="cls-6" d="M86.16,403.2a17,17,0,0,0-10.32,3.15s7.29,11.84,18.28,13.15"/><path class="cls-6" d="M97.68,385.36c-1.59-4.1-11.86-11.86-11.86-11.86A14.06,14.06,0,0,0,85.1,383"/><line class="cls-6" x1="67.96" y1="383.64" x2="57.71" y2="373.44"/><path class="cls-6" d="M75.9,392.2a14.07,14.07,0,0,0-9.49.71s7.75,10.27,11.86,11.86"/><line class="cls-6" x1="66.67" y1="373.07" x2="55.43" y2="361.84"/><line class="cls-6" x1="67.12" y1="364.04" x2="77.34" y2="374.26"/><line class="cls-6" x1="66.42" y1="392.91" x2="59.1" y2="385.59"/><line class="cls-6" x1="85.67" y1="373.65" x2="78.36" y2="366.33"/><path class="cls-5" d="M421.68,370l11.38-11.39,32.08,35.65a55.06,55.06,0,0,1-9.6,13c-7.21,6.93-13,9.6-13,9.6l-41.7-37.67,4.88-4.29,19.37,17.61s6.18-6.23-7.86-15.06l.2-3.24Z"/><path class="cls-6" d="M400.82,379.17l41.7,37.67s5.81-2.67,13-9.6a55.06,55.06,0,0,0,9.6-13l-32.08-35.65L421.68,370"/><path class="cls-6" d="M402.5,378.08c-4.19,4.18-11.4-2.29-4.48-9.25,7.39-7.43,7.63-1,10.6-11.14,0,0,2.61-4.22,6.86-2.9,0,0-5-7.64,4-10.57s9.47,8.88,9.32,9.32L414.2,368.1s4.26,2.65,3,9.33c0,0,14.77,8,7.86,15.06L405.7,374.88Z"/><line class="cls-8" x1="429.8" y1="397.13" x2="439" y2="405.6"/><path class="cls-6" d="M371.68,420.91s.4-18.55-18.3-18C353.38,402.91,351.23,419.7,371.68,420.91Z"/><path class="cls-6" d="M350.75,392.38c-1.46-5.29-6.9-11.46-20.33-13.37,0,0-.27,17.33,12.63,20.53"/><path class="cls-6" d="M363.07,404.92c-1.94-8.67-10.55-13.36-22.42-15.05,0,0,1.12,16.86,13.9,21.58"/><line class="cls-6" x1="378.6" y1="427.82" x2="381.72" y2="430.94"/><path class="cls-6" d="M368.15,409.35c.39-6.63,4.3-13.82,4.3-13.82,15,15.21-.77,25.37-.77,25.37l2.3,2.3"/><path class="cls-6" d="M370.88,421.71s-10.16,15.72-25.37.77c0,0,7.18-3.91,13.81-4.3"/><path class="cls-6" d="M353.55,393.63a17.07,17.07,0,0,1,3.15-10.32s11.84,7.29,13.14,18.29"/><path class="cls-6" d="M344,403.2a17,17,0,0,0-10.32,3.15s7.29,11.84,18.28,13.15"/><path class="cls-6" d="M355.49,385.36c-1.59-4.1-11.86-11.86-11.86-11.86a14.06,14.06,0,0,0-.72,9.49"/><line class="cls-6" x1="325.78" y1="383.64" x2="315.53" y2="373.44"/><path class="cls-6" d="M333.72,392.2a14.07,14.07,0,0,0-9.49.71s7.75,10.27,11.86,11.86"/><line class="cls-6" x1="324.48" y1="373.07" x2="313.25" y2="361.84"/><line class="cls-6" x1="324.94" y1="364.04" x2="335.16" y2="374.26"/><line class="cls-6" x1="324.23" y1="392.91" x2="316.92" y2="385.59"/><line class="cls-6" x1="343.49" y1="373.65" x2="336.17" y2="366.33"/><line class="cls-6" x1="264.72" y1="392.05" x2="254.47" y2="381.85"/><line class="cls-6" x1="263.42" y1="381.48" x2="252.19" y2="370.25"/><line class="cls-6" x1="263.87" y1="372.44" x2="274.1" y2="382.67"/><line class="cls-6" x1="508.47" y1="392.05" x2="498.22" y2="381.85"/><line class="cls-6" x1="507.17" y1="381.48" x2="495.94" y2="370.25"/><line class="cls-6" x1="508.47" y1="230.59" x2="498.22" y2="220.39"/><line class="cls-6" x1="507.17" y1="220.02" x2="495.94" y2="208.79"/><path class="cls-6" d="M167.7,50s.4-18.55-18.3-18C149.4,32,147.24,48.82,167.7,50Z"/><line class="cls-6" x1="174.61" y1="56.94" x2="177.73" y2="60.06"/><path class="cls-6" d="M61.29,43.64s.4-18.55-18.3-18C43,25.64,40.84,42.43,61.29,43.64Z"/><line class="cls-6" x1="68.21" y1="50.55" x2="71.33" y2="53.67"/><path class="cls-6" d="M82.44,141.84s.4-18.55-18.3-18C64.14,123.84,62,140.63,82.44,141.84Z"/><line class="cls-6" x1="89.35" y1="148.75" x2="92.47" y2="151.87"/><path class="cls-6" d="M359,141.84s.4-18.55-18.3-18C340.68,123.84,338.52,140.63,359,141.84Z"/><line class="cls-6" x1="365.89" y1="148.75" x2="369.01" y2="151.87"/><path class="cls-6" d="M218.35,193.34s.4-18.55-18.3-18C200.05,175.34,197.89,192.13,218.35,193.34Z"/><line class="cls-6" x1="225.26" y1="200.25" x2="228.38" y2="203.37"/><path class="cls-6" d="M232.55,257.88s.4-18.55-18.3-18C214.25,239.88,212.09,256.67,232.55,257.88Z"/><line class="cls-6" x1="239.46" y1="264.79" x2="242.58" y2="267.91"/><path class="cls-6" d="M232.55,362.57s.4-18.55-18.3-18C214.25,344.57,212.09,361.36,232.55,362.57Z"/><line class="cls-6" x1="239.46" y1="369.48" x2="242.58" y2="372.6"/><path class="cls-6" d="M95.53,348.55s.4-18.55-18.3-18C77.23,330.55,75.07,347.34,95.53,348.55Z"/><line class="cls-6" x1="102.44" y1="355.46" x2="105.56" y2="358.58"/><path class="cls-6" d="M369.55,348.55s.4-18.55-18.3-18C351.25,330.55,349.09,347.34,369.55,348.55Z"/><line class="cls-6" x1="376.46" y1="355.46" x2="379.58" y2="358.58"/><path class="cls-6" d="M467.76,348.7s18.55.4,18-18.3C485.76,330.4,469,328.24,467.76,348.7Z"/><line class="cls-6" x1="460.85" y1="355.61" x2="457.73" y2="358.73"/><path class="cls-6" d="M467.76,58s18.55.4,18-18.3C485.76,39.72,469,37.56,467.76,58Z"/><line class="cls-6" x1="460.85" y1="64.93" x2="457.73" y2="68.05"/><path class="cls-6" d="M453.74,457.2s18.55.4,18-18.3C471.74,438.9,454.95,436.74,453.74,457.2Z"/><line class="cls-6" x1="446.83" y1="464.11" x2="443.71" y2="467.23"/><path class="cls-6" d="M455.3,133.34s18.55.4,18-18.3C473.3,115,456.51,112.88,455.3,133.34Z"/><line class="cls-6" x1="448.39" y1="140.25" x2="445.27" y2="143.37"/><path class="cls-6" d="M107.13,467.27s.4-18.55-18.3-18C88.83,449.27,86.67,466.06,107.13,467.27Z"/><line class="cls-6" x1="114.04" y1="474.18" x2="117.16" y2="477.3"/><path class="cls-6" d="M375.05,467.27s.4-18.55-18.3-18C356.75,449.27,354.59,466.06,375.05,467.27Z"/><line class="cls-6" x1="381.96" y1="474.18" x2="385.08" y2="477.3"/><path class="cls-6" d="M399.75,247s.4-18.55-18.3-18C381.45,229,379.29,245.77,399.75,247Z"/><line class="cls-6" x1="406.66" y1="253.89" x2="409.78" y2="257.01"/><path class="cls-6" d="M423.28,50s.4-18.55-18.3-18C405,32,402.82,48.82,423.28,50Z"/><line class="cls-6" x1="430.19" y1="56.94" x2="433.31" y2="60.06"/><line class="cls-6" x1="8.47" y1="34.94" x2="-1.78" y2="24.74"/><line class="cls-6" x1="7.17" y1="24.37" x2="-4.06" y2="13.13"/><line class="cls-6" x1="7.63" y1="15.33" x2="17.85" y2="25.56"/><line class="cls-6" x1="8.47" y1="392.05" x2="-1.78" y2="381.85"/><line class="cls-6" x1="7.17" y1="381.48" x2="-4.06" y2="370.25"/><line class="cls-6" x1="7.63" y1="372.44" x2="17.85" y2="382.67"/><line class="cls-6" x1="8.47" y1="230.59" x2="-1.78" y2="220.39"/><line class="cls-6" x1="7.17" y1="220.02" x2="-4.06" y2="208.79"/><line class="cls-6" x1="7.63" y1="210.98" x2="17.85" y2="221.21"/></g></g></svg>