<svg id="Layer_1" data-name="Layer 1" xmlns="http://www.w3.org/2000/svg" viewBox="0 0 361 310.76"><defs><style>.cls-1{fill:#dd4842;}</style></defs><title>CARTREDArtboard 4</title><path d="M130.21,220.25l-11.79-4.46-1.17,4.46h-12v21.6c.07,16.35-1.12,36.08-10.44,36.08-9.67,0-11.07-17.87-11.07-30.95V156.26c0-13,1.47-31.06,11.07-31.06s10.3,20.32,10.3,36v12.46l-11.79,2.47,11.79,4.46h25.08v-18.1c0-40.52-9.25-70.07-35.38-70.07-28.1,0-36.58,32.93-36.58,74.5V191L26.55,91l54.72-2.47L69.47,84.1H10.87L35,154.23,61,271.09q.74,4,1.71,7.7l.41,1.85.1.08c5.2,18.14,15,30,31.61,30,27.4,0,35-34.92,35.38-72.75Z"/><path d="M351.65,8.46,339.86,4l-.22,6.93L338,7.43,285.86,21.15l9.5,71.28.28-4.45-.27,8.5H271v28.81c-5.7-20.82-19.08-28.81-37.18-28.81H206V302.21h-1.53L177.9,96.47,166.1,92,164,94.13l2.48,2.34H155.33L128.71,301.81l-12.42.4,11.79,4.46h25.29l4.9-45h16.47l4.67,40.5H168.13l11.79,4.46h25.15l0-.38,1,.38h25.5V209.86h4.2l13.77,92.35H238.38l11.79,4.46h26.42c-7.08-34.92-13.45-68.2-19.76-101.59,15.63-11.21,17.17-34.8,17.17-53.25a107.39,107.39,0,0,0-2.3-23.59h17.76V280.68l-.67,20.93-12,.6,11.79,4.46H315V128.24h18.15V96.47L321.32,92l.05,4.46h-14L305.27,31l34.14-13.31-.88,27.44-13.16-6.74,13.12,7.82h0l-13.12-7.82-11.79-4.46,24.83,14.81,11.79,4.46.23-7.27,1.11-34.46ZM160,235.55l6.66-78,6.38,78Zm78.8-51.62h-7.29V127.65H240c7.64,0,8.62,19.85,8.62,27.56S247.3,183.94,238.83,183.94Z"/><path class="cls-1" d="M118.41,215.8H93.47v21.6c.07,16.35-1.12,36.08-10.44,36.08-9.67,0-11.07-17.87-11.07-30.95V151.81c0-13,1.47-31.06,11.07-31.06s10.3,20.32,10.3,36v19.38h25.08V158c0-40.52-9.25-70.07-35.38-70.07-28.1,0-36.58,32.93-36.58,74.5v24.11l-31.7-100L69.47,84.1,11.22,81.48l-3.3-.15L49.19,266.64q.74,4,1.71,7.7l.41,1.85.1.08c5.2,18.14,15,30,31.61,30,27.4,0,35-34.92,35.38-72.75Z"/><path class="cls-1" d="M143.54,92l-27.26,210.2h25.29l4.9-45h16.47l5.19,45h25.15L166.1,92Zm4.69,139.08,6.66-78,6.38,78Z"/><path class="cls-1" d="M336.86,5,288.32,20.37l-2.45.78L285.77,24,283.59,92H259.17v28.81C253.46,100,240.08,92,222,92H194.24v210.2h25.5V205.41H224l14.43,96.81H264.8C257.72,267.3,251.35,234,245,200.62c15.63-11.21,17.17-34.8,17.17-53.25a107.39,107.39,0,0,0-2.3-23.59h17.76V276.22l-.84,26h26.34V123.78h18.15V92H295.58l-2.11-65.48,42-16.38,1.14,35.59L313.58,33.93,337.16,48l1.26.75,0-1.52L339.76,7l.1-3ZM227,179.48h-7.29V123.2h8.48c7.64,0,8.62,19.85,8.62,27.56S235.51,179.48,227,179.48Z"/></svg>