<svg id="Layer_1" data-name="Layer 1" xmlns="http://www.w3.org/2000/svg" viewBox="0 0 353.33 308.95"><defs><style>.cls-1{fill:#5a9ecb;}</style></defs><title>CARTBLUEArtboard 5</title><path d="M126,218.45,114.25,214l-1.17,4.46h-12v21.6c.07,16.35-1.12,36.08-10.44,36.08-9.67,0-11.07-17.87-11.07-30.95V154.46c0-13,1.47-31.06,11.07-31.06s10.3,20.32,10.3,36v12.46l-11.79,2.47L101,178.75H126v-18.1c0-40.52-9.25-70.07-35.38-70.07-28.1,0-36.58,32.93-36.58,74.5v24.11l-31.7-100L77.1,86.75,65.31,82.3H6.7L30.8,152.43l26,116.86q.74,4,1.71,7.7l.41,1.85.1.08c5.2,18.14,15,30,31.61,30,27.4,0,35-34.92,35.38-72.75Z"/><path d="M347.48,6.66,335.69,2.2l-.22,6.93-1.6-3.51L281.7,19.34l9.5,71.28.28-4.45-.27,8.5H266.79v28.81c-5.7-20.82-19.08-28.81-37.18-28.81H201.87V300.41h-1.53L173.73,94.67l-11.79-4.46-2.11,2.12,2.48,2.34H151.17L124.54,300l-12.42.4,11.79,4.46h25.29l4.9-45h16.47l4.67,40.5H164l11.79,4.46h25.15l0-.38,1,.38h25.5V208.06h4.2l13.77,92.35H234.22L246,304.86h26.42c-7.08-34.92-13.45-68.2-19.76-101.59,15.63-11.21,17.17-34.8,17.17-53.25a107.39,107.39,0,0,0-2.3-23.59h17.76V278.88l-.67,20.93-12,.6,11.79,4.46H310.8V126.43h18.15V94.67l-11.79-4.46.05,4.46h-14l-2.1-65.48,34.14-13.31-.88,27.44-13.16-6.74,13.12,7.82h0l-13.12-7.82-11.79-4.46,24.83,14.81L346,51.38l.23-7.27,1.11-34.46ZM155.86,233.75l6.66-78,6.38,78Zm78.8-51.62h-7.29V125.85h8.48c7.64,0,8.62,19.85,8.62,27.56S243.14,182.13,234.66,182.13Z"/><path class="cls-1" d="M114.25,214H89.3v21.6c.07,16.35-1.12,36.08-10.44,36.08-9.67,0-11.07-17.87-11.07-30.95V150c0-13,1.47-31.06,11.07-31.06s10.3,20.32,10.3,36v19.38h25.08v-18.1c0-40.52-9.25-70.07-35.38-70.07-28.1,0-36.58,32.93-36.58,74.5v24.11l-31.7-100L65.31,82.3,7.06,79.67l-3.3-.15L45,264.83q.74,4,1.71,7.7l.41,1.85.1.08c5.2,18.14,15,30,31.61,30,27.4,0,35-34.92,35.38-72.75Z"/><path class="cls-1" d="M139.37,90.21l-27.26,210.2h25.29l4.9-45h16.47l5.19,45h25.15L161.94,90.21Zm4.69,139.08,6.66-78,6.38,78Z"/><path class="cls-1" d="M332.69,3.15,284.15,18.57l-2.45.78-.09,2.82-2.19,68.05H255V119c-5.7-20.82-19.08-28.81-37.18-28.81H190.07v210.2h25.5V203.6h4.2l14.43,96.81h26.42c-7.08-34.92-13.45-68.2-19.76-101.59C256.5,187.6,258,164,258,145.56a107.39,107.39,0,0,0-2.3-23.59H273.5V274.42l-.84,26H299V122h18.15V90.21H291.42l-2.11-65.48,42-16.38,1.14,35.59L309.42,32.12,333,46.18l1.26.75,0-1.52,1.29-40.2.1-3ZM222.87,177.68h-7.29V121.39h8.48c7.64,0,8.62,19.85,8.62,27.56S231.35,177.68,222.87,177.68Z"/></svg>