<svg id="Layer_1" data-name="Layer 1" xmlns="http://www.w3.org/2000/svg" viewBox="0 0 965.89 151.52"><title>LOGOBERKArtboard 3</title><path d="M131.8,8.59h28.85c23.95,0,42.92,5.91,42.92,36.16,0,15-7.15,22.47-21.23,27.21,18.27,4.43,25,17.81,25,35.3,0,28.23-13.45,41.29-41,41.29H131.8Zm33,55.05c10.73,0,13-8.79,13-19.59,0-16.64-7.31-16.56-17.81-16.49V63.65Zm-2,64.93c14.93,0,17.11-7.08,17.11-23.25,0-13.45-3.81-23.09-17-23.09h-2.8v46.34Z"/><path d="M220.45,8.59h58.4V28H248.75v38.1h21.31V86H248.75v43.08h30.09v19.44h-58.4Z"/><path d="M289,8.59h30.79c27.06,0,44.63,9.64,44.63,36.86,0,12.29-1.71,28-19.05,35.46,7,22.24,14.07,44.4,21.93,67.65H337.94l-16-64.46h-4.67v64.46H289Zm36.39,58.24c9.41,0,10.89-13.92,10.89-19.13s-1.09-18.35-9.56-18.35h-9.41V66.84Z"/><path d="M376.2,8.59h28.3V61.7L426.43,8.59h31.65L429.54,65.9l30.64,82.66H430.78l-21.15-64L404.5,97.78v50.78H376.2Z"/><path d="M465.54,8.59h28.85c23.95,0,42.92,5.91,42.92,36.16,0,15-7.15,22.47-21.23,27.21,18.27,4.43,25,17.81,25,35.3,0,28.23-13.45,41.29-41,41.29H465.54Zm33,55.05c10.73,0,13-8.79,13-19.59,0-16.64-7.31-16.56-17.81-16.49V63.65Zm-2,64.93c14.93,0,17.11-7.08,17.11-23.25,0-13.45-3.81-23.09-17-23.09h-2.8v46.34Z"/><path d="M554.19,8.59h58.4V28H582.49v38.1H603.8V86H582.49v43.08h30.09v19.44h-58.4Z"/><path d="M622.69,8.59h58.4V28H651v38.1H672.3V86H651v43.08h30.09v19.44h-58.4Z"/><path d="M691.2,8.59H722c27.06,0,44.63,9.64,44.63,36.86,0,12.29-1.71,28-19.05,35.46,7,22.24,14.07,44.4,21.93,67.65H740.18l-16-64.46H719.5v64.46H691.2Zm36.39,58.24c9.41,0,10.89-13.92,10.89-19.13s-1.09-18.35-9.56-18.35H719.5V66.84Z"/><path d="M60.66,63.65h4.82c10.73,0,13-8.79,13-19.59a30.56,30.56,0,0,0-1.06-8.85L37.49,57.91,60.66,44.73Z"/><polygon points="2.76 77.67 32.51 95.03 32.51 60.74 2.76 77.67"/><path d="M80.56,105.33c0-13.45-3.81-23.09-17-23.09h-2.8v29.33l33.71,19.68L78.3,121.77C80.12,118,80.56,112.57,80.56,105.33Z"/><path d="M124.19,8.59,99.09,22.87c3.32,5.27,5.19,12.37,5.19,21.88,0,15-7.15,22.47-21.23,27.21,18.27,4.43,25,17.81,25,35.3,0,11.84-2.38,21-7.16,27.67l23.34,13.62Z"/><polygon points="100.85 134.94 100.85 134.94 94.53 131.24 100.85 134.94"/><polygon points="32.51 95.03 60.81 111.56 60.81 111.56 32.51 95.03 32.51 95.03"/><polygon points="32.51 60.74 32.51 60.74 37.49 57.91 32.51 60.74"/><polygon points="99.09 22.87 77.41 35.2 77.41 35.2 99.09 22.87 99.09 22.87"/><rect x="778.39" y="8.57" width="39" height="140.02"/><rect x="778.39" y="66.67" width="187.5" height="23.82"/></svg>